<?xml version="1.0" encoding="utf-8"?>
<!-- Generator: Adobe Illustrator 21.0.0, SVG Export Plug-In . SVG Version: 6.00 Build 0)  -->
<svg version="1.1" id="Шар_1" xmlns="http://www.w3.org/2000/svg" xmlns:xlink="http://www.w3.org/1999/xlink" x="0px" y="0px"
	 viewBox="0 0 288 50" style="enable-background:new 0 0 288 50;" xml:space="preserve">
<style type="text/css">
	.st0{fill:#F6BD00;}
	.st1{fill:#91BF20;}
	.st2{fill:#ED7601;}
	.st3{fill:#4AAC33;}
	.st4{fill:#9DC31A;}
	.st5{fill:#4692CF;}
	.st6{fill:#48C0ED;}
	.st7{fill:#BE2183;}
	.st8{fill:#E73E8E;}
	.st9{fill:#FFD200;}
	.st10{fill:#FFE100;}
	.st11{fill:#D0D600;}
	.st12{fill:#E8E000;}
	.st13{fill:url(#XMLID_2_);}
	.st14{fill:url(#XMLID_3_);}
	.st15{fill:url(#XMLID_4_);}
	.st16{fill:url(#XMLID_5_);}
	.st17{fill:url(#XMLID_6_);}
	.st18{fill:url(#XMLID_7_);}
	.st19{fill:url(#XMLID_8_);}
	.st20{fill:url(#XMLID_9_);}
	.st21{fill:url(#XMLID_10_);}
	.st22{fill:url(#XMLID_11_);}
	.st23{fill:url(#XMLID_12_);}
	.st24{fill:url(#XMLID_13_);}
	.st25{fill:url(#XMLID_14_);}
	.st26{fill:url(#XMLID_15_);}
	.st27{fill:url(#XMLID_16_);}
	.st28{fill:url(#XMLID_17_);}
</style>
<g id="XMLID_654_">
	<polygon id="XMLID_671_" class="st0" points="17.9,25 15.6,27.4 17.9,29.7 21.5,26.2 20.3,25 	"/>
	<polygon id="XMLID_670_" class="st0" points="17.9,20.3 21.5,23.8 20.3,25 17.9,25 15.6,22.6 	"/>
	<polygon id="XMLID_669_" class="st1" points="32.1,25 34.4,22.6 32.1,20.3 28.5,23.8 29.7,25 	"/>
	<polygon id="XMLID_668_" class="st1" points="32.1,29.7 28.5,26.2 29.7,25 32.1,25 34.4,27.4 	"/>
	<polygon id="XMLID_667_" class="st2" points="25,32.1 27.4,34.4 29.7,32.1 26.2,28.5 25,29.7 	"/>
	<polygon id="XMLID_666_" class="st2" points="20.3,32.1 23.8,28.5 25,29.7 25,32.1 22.6,34.4 	"/>
	<polygon id="XMLID_665_" class="st3" points="25,17.9 22.6,15.6 20.3,17.9 23.8,21.5 25,20.3 	"/>
	<polygon id="XMLID_664_" class="st3" points="29.7,17.9 26.2,21.5 25,20.3 25,17.9 27.4,15.6 	"/>
	
		<rect id="XMLID_663_" x="23.8" y="23.8" transform="matrix(0.7071 -0.7071 0.7071 0.7071 -10.3554 25.0002)" class="st4" width="2.4" height="2.4"/>
	<polygon id="XMLID_662_" class="st5" points="3.8,25 0,28.8 0,35.4 3.8,39.1 14.4,28.5 10.9,25 	"/>
	<polygon id="XMLID_661_" class="st6" points="3.8,10.9 0,14.6 0,21.2 3.8,25 10.9,25 14.4,21.5 	"/>
	<polygon id="XMLID_660_" class="st7" points="46.2,10.9 35.6,21.5 39.1,25 46.2,25 50,21.2 50,14.6 	"/>
	<polygon id="XMLID_659_" class="st8" points="39.1,25 35.6,28.5 46.2,39.1 50,35.4 50,28.8 46.2,25 	"/>
	<polygon id="XMLID_658_" class="st9" points="28.5,35.6 25,39.1 25,46.2 28.8,50 35.4,50 39.1,46.2 	"/>
	<polygon id="XMLID_657_" class="st10" points="21.5,35.6 10.9,46.2 14.6,50 21.2,50 25,46.2 25,39.1 	"/>
	<polygon id="XMLID_656_" class="st11" points="14.6,0 10.9,3.8 21.5,14.4 25,10.9 25,3.8 21.2,0 	"/>
	<polygon id="XMLID_655_" class="st12" points="28.8,0 25,3.8 25,10.9 28.5,14.4 39.1,3.8 35.4,0 	"/>
</g>
<linearGradient id="XMLID_2_" gradientUnits="userSpaceOnUse" x1="69.926" y1="25.6021" x2="155.7878" y2="25.6021">
	<stop  offset="0" style="stop-color:#F47F01"/>
	<stop  offset="1" style="stop-color:#FFBD08"/>
</linearGradient>
<path id="XMLID_651_" class="st13" d="M87.7,33.5v2.4h-1c-0.5,0-1,0-1.4-0.1c-0.4-0.1-0.8-0.2-1.1-0.4c-0.3-0.2-0.6-0.5-0.9-1
	c-0.3-0.4-0.5-1-0.7-1.7l-0.8-2.3h-7.2l-1.7,5.6h-2.8l1.8-5.6H70v-2.4h2.7l4-12.6h3.1l5.3,16.7c0.2,0.5,0.4,0.8,0.6,1.1
	c0.3,0.2,0.7,0.3,1.3,0.3H87.7z M75.4,27.9H81l-2.4-7.4l-0.5-2l-0.5,2L75.4,27.9z"/>
<linearGradient id="XMLID_3_" gradientUnits="userSpaceOnUse" x1="69.926" y1="25.6021" x2="155.7878" y2="25.6021">
	<stop  offset="0" style="stop-color:#F47F01"/>
	<stop  offset="1" style="stop-color:#FFBD08"/>
</linearGradient>
<path id="XMLID_648_" class="st14" d="M91.2,17.7h-3.9v-2.4h8.8c1.5,0,2.7,0.2,3.7,0.5c1,0.4,1.8,0.8,2.4,1.4c0.6,0.6,1,1.3,1.3,2
	c0.3,0.8,0.4,1.6,0.4,2.4c0,1.1-0.3,2.1-0.9,3.1c-0.6,1-1.4,1.7-2.5,2.2l3.8,5.2c0.4,0.5,0.8,0.9,1.3,1c0.5,0.1,1,0.2,1.6,0.2h0.5
	v2.4h-1.3c-1,0-1.9-0.2-2.5-0.6c-0.7-0.4-1.3-1.1-2-2l-4.2-5.7h-3.8v8.3h-2.7V17.7z M93.9,17.7v7.5h3.3c1.3,0,2.4-0.4,3-1.1
	c0.7-0.7,1-1.6,1-2.8c0-0.5-0.1-0.9-0.3-1.4c-0.2-0.5-0.4-0.8-0.8-1.2c-0.3-0.3-0.8-0.6-1.3-0.8c-0.5-0.2-1.1-0.3-1.8-0.3H93.9z"/>
<linearGradient id="XMLID_4_" gradientUnits="userSpaceOnUse" x1="69.926" y1="25.6021" x2="155.7878" y2="25.6021">
	<stop  offset="0" style="stop-color:#F47F01"/>
	<stop  offset="1" style="stop-color:#FFBD08"/>
</linearGradient>
<path id="XMLID_646_" class="st15" d="M107.1,20.1v-1c0-0.5,0.1-1,0.2-1.4c0.1-0.4,0.3-0.8,0.6-1.2c0.3-0.3,0.7-0.6,1.2-0.8
	c0.5-0.2,1.1-0.3,1.9-0.3h12.8v2.4h-6.6v18.1h-2.7V17.7h-3.1c-0.8,0-1.3,0.1-1.6,0.4c-0.3,0.3-0.4,0.7-0.4,1.2v0.7H107.1z"/>
<linearGradient id="XMLID_5_" gradientUnits="userSpaceOnUse" x1="69.926" y1="25.6021" x2="155.7878" y2="25.6021">
	<stop  offset="0" style="stop-color:#F47F01"/>
	<stop  offset="1" style="stop-color:#FFBD08"/>
</linearGradient>
<path id="XMLID_644_" class="st16" d="M141.2,35.9V15.3h2.7v9.6l5-7c0.6-0.9,1.3-1.5,1.9-2c0.7-0.4,1.5-0.6,2.5-0.6h1.4v2.4h-0.9
	c-0.7,0-1.2,0.1-1.5,0.3c-0.4,0.2-0.7,0.5-1,0.9l-4.4,5.9l6.2,7.6c0.4,0.4,0.8,0.7,1.2,0.9c0.5,0.1,1,0.2,1.6,0.2h0.7v2.4H155
	c-0.5,0-1-0.1-1.4-0.2c-0.4-0.1-0.8-0.3-1.1-0.5c-0.3-0.2-0.7-0.5-1-0.8c-0.3-0.3-0.6-0.7-1-1.1l-5.2-6.3l-1.5,2.1v6.9H141.2z"/>
<linearGradient id="XMLID_6_" gradientUnits="userSpaceOnUse" x1="165.1665" y1="25.6053" x2="287.8031" y2="25.6053">
	<stop  offset="0" style="stop-color:#259DEF"/>
	<stop  offset="1" style="stop-color:#37C9FF"/>
</linearGradient>
<rect id="XMLID_643_" x="264.1" y="24.4" class="st17" width="5.7" height="2.4"/>
<linearGradient id="XMLID_7_" gradientUnits="userSpaceOnUse" x1="165.1665" y1="25.6053" x2="287.8031" y2="25.6053">
	<stop  offset="0" style="stop-color:#259DEF"/>
	<stop  offset="1" style="stop-color:#37C9FF"/>
</linearGradient>
<polygon id="XMLID_642_" class="st18" points="262.9,17.7 271.5,17.7 271.5,15.3 260.2,15.3 260.2,35.9 262.9,35.9 "/>
<linearGradient id="XMLID_8_" gradientUnits="userSpaceOnUse" x1="165.1665" y1="34.6778" x2="287.8031" y2="34.6778">
	<stop  offset="0" style="stop-color:#259DEF"/>
	<stop  offset="1" style="stop-color:#37C9FF"/>
</linearGradient>
<rect id="XMLID_641_" x="264.1" y="33.5" class="st19" width="8.9" height="2.4"/>
<g id="XMLID_637_">
	<linearGradient id="XMLID_9_" gradientUnits="userSpaceOnUse" x1="69.926" y1="25.6053" x2="155.7878" y2="25.6053">
		<stop  offset="0" style="stop-color:#F47F01"/>
		<stop  offset="1" style="stop-color:#FFBD08"/>
	</linearGradient>
	<rect id="XMLID_640_" x="130.3" y="24.4" class="st20" width="6.4" height="2.4"/>
	<linearGradient id="XMLID_10_" gradientUnits="userSpaceOnUse" x1="69.926" y1="25.6053" x2="155.7878" y2="25.6053">
		<stop  offset="0" style="stop-color:#F47F01"/>
		<stop  offset="1" style="stop-color:#FFBD08"/>
	</linearGradient>
	<polygon id="XMLID_639_" class="st21" points="129.1,17.7 138.5,17.7 138.5,15.3 126.4,15.3 126.4,35.9 129.1,35.9 	"/>
	<linearGradient id="XMLID_11_" gradientUnits="userSpaceOnUse" x1="69.926" y1="34.6778" x2="155.7878" y2="34.6778">
		<stop  offset="0" style="stop-color:#F47F01"/>
		<stop  offset="1" style="stop-color:#FFBD08"/>
	</linearGradient>
	<rect id="XMLID_638_" x="130.3" y="33.5" class="st22" width="8.2" height="2.4"/>
</g>
<linearGradient id="XMLID_12_" gradientUnits="userSpaceOnUse" x1="165.1574" y1="25.6021" x2="287.794" y2="25.6021">
	<stop  offset="0" style="stop-color:#259DEF"/>
	<stop  offset="1" style="stop-color:#37C9FF"/>
</linearGradient>
<path id="XMLID_635_" class="st23" d="M172.9,23.6c1.2-0.1,2.1-0.4,2.7-1c0.6-0.6,0.9-1.3,0.9-2.3c0-0.8-0.3-1.5-0.9-1.9
	c-0.6-0.4-1.6-0.7-2.8-0.7h-1v18.1H169V17.7h-3.9v-2.4h8.2c0.9,0,1.8,0.1,2.5,0.4c0.7,0.3,1.3,0.6,1.8,1c0.5,0.4,0.8,0.9,1.1,1.5
	c0.2,0.6,0.3,1.2,0.3,1.9c0,0.4-0.1,1-0.3,1.6c-0.2,0.7-0.6,1.3-1.2,1.9c1,0.1,1.9,0.4,2.6,0.8c0.7,0.4,1.4,0.9,1.9,1.4
	c0.5,0.5,0.9,1.2,1.1,1.8c0.2,0.7,0.4,1.3,0.4,2c0,0.8-0.1,1.5-0.4,2.3c-0.3,0.7-0.7,1.4-1.2,2c-0.6,0.6-1.3,1-2.3,1.4
	c-0.9,0.4-2.1,0.5-3.4,0.5h-3.3v-2.4h2.9c1,0,1.8-0.1,2.5-0.3c0.7-0.2,1.2-0.5,1.6-0.8c0.4-0.3,0.7-0.7,0.8-1.2
	c0.1-0.5,0.2-0.9,0.2-1.4c0-0.5-0.1-1-0.3-1.5c-0.2-0.5-0.6-0.9-1.1-1.3c-0.5-0.4-1.1-0.7-1.8-0.9c-0.7-0.2-1.6-0.3-2.6-0.3h-2.2
	V23.6z"/>
<linearGradient id="XMLID_13_" gradientUnits="userSpaceOnUse" x1="165.1665" y1="25.6021" x2="287.8031" y2="25.6021">
	<stop  offset="0" style="stop-color:#259DEF"/>
	<stop  offset="1" style="stop-color:#37C9FF"/>
</linearGradient>
<path id="XMLID_633_" class="st24" d="M201.2,15.3v13.8c0,2.2-0.6,3.9-1.8,5.1c-1.2,1.2-2.9,1.7-5.2,1.7h-0.7c-2.2,0-4-0.6-5.2-1.7
	c-1.2-1.2-1.8-2.8-1.8-5.1v-9c0-0.8-0.1-1.4-0.3-1.8c-0.2-0.4-0.7-0.6-1.3-0.6h-0.7v-2.4h0.9c1.3,0,2.3,0.3,3.1,0.8
	c0.7,0.6,1.1,1.6,1.1,3.1v9.9c0,1.4,0.4,2.4,1.1,3.1c0.7,0.7,1.8,1,3.2,1h0.7c1.4,0,2.4-0.3,3.2-1c0.7-0.7,1.1-1.7,1.1-3.1V15.3
	H201.2z"/>
<linearGradient id="XMLID_14_" gradientUnits="userSpaceOnUse" x1="165.1665" y1="25.6021" x2="287.8031" y2="25.6021">
	<stop  offset="0" style="stop-color:#259DEF"/>
	<stop  offset="1" style="stop-color:#37C9FF"/>
</linearGradient>
<path id="XMLID_631_" class="st25" d="M204.8,35.9V15.3h2.7v9.6l5-7c0.6-0.9,1.3-1.5,1.9-2c0.7-0.4,1.5-0.6,2.5-0.6h1.4v2.4h-0.9
	c-0.7,0-1.2,0.1-1.5,0.3c-0.4,0.2-0.7,0.5-1,0.9l-4.4,5.9l6.2,7.6c0.4,0.4,0.8,0.7,1.2,0.9c0.5,0.1,1,0.2,1.6,0.2h0.7v2.4h-1.7
	c-0.5,0-1-0.1-1.4-0.2c-0.4-0.1-0.8-0.3-1.1-0.5c-0.3-0.2-0.7-0.5-1-0.8c-0.3-0.3-0.6-0.7-1-1.1L209,27l-1.5,2.1v6.9H204.8z"/>
<linearGradient id="XMLID_15_" gradientUnits="userSpaceOnUse" x1="165.1665" y1="25.4914" x2="287.8031" y2="25.4914">
	<stop  offset="0" style="stop-color:#259DEF"/>
	<stop  offset="1" style="stop-color:#37C9FF"/>
</linearGradient>
<path id="XMLID_629_" class="st26" d="M240.4,17.7v-2.4h1c0.5,0,1,0,1.4,0.1c0.4,0.1,0.8,0.2,1.1,0.4c0.3,0.2,0.6,0.5,0.9,1
	c0.3,0.4,0.5,1,0.7,1.7l3.9,12.2l0.4,1.9l0.4-1.9l4.9-15.6l2.5,0.8l-6.4,19.9h-3.1l-5.3-16.7c-0.2-0.5-0.4-0.8-0.6-1.1
	c-0.3-0.2-0.7-0.3-1.3-0.3H240.4z"/>
<linearGradient id="XMLID_16_" gradientUnits="userSpaceOnUse" x1="165.1665" y1="25.6021" x2="287.8031" y2="25.6021">
	<stop  offset="0" style="stop-color:#259DEF"/>
	<stop  offset="1" style="stop-color:#37C9FF"/>
</linearGradient>
<path id="XMLID_627_" class="st27" d="M277.5,15.3v16c0,0.8,0.2,1.4,0.6,1.7c0.4,0.3,0.9,0.5,1.6,0.5h5.3v-1.7h2.5v3.3
	c0,0.4-0.4,0.8-0.8,0.8h-7.9c-0.6,0-1.1-0.1-1.6-0.3c-0.5-0.2-0.9-0.5-1.3-0.8c-0.4-0.4-0.7-0.9-0.9-1.5c-0.1-0.4-0.2-0.8-0.2-1.2
	V15.3H277.5z"/>
<linearGradient id="XMLID_17_" gradientUnits="userSpaceOnUse" x1="165.1665" y1="25.5546" x2="287.8031" y2="25.5546">
	<stop  offset="0" style="stop-color:#259DEF"/>
	<stop  offset="1" style="stop-color:#37C9FF"/>
</linearGradient>
<path id="XMLID_624_" class="st28" d="M239,22.2c-0.4-1.3-0.9-2.4-1.6-3.4c-0.4-0.5-1-1.2-1.8-1.9c-0.7-0.5-1.5-0.9-2.3-1.2
	c-0.9-0.3-1.8-0.5-2.9-0.5c-1.5,0-2.8,0.3-4,1c-1.1,0.6-2.1,1.5-2.9,2.5c-0.8,1-1.3,2.2-1.7,3.5s-0.6,2.6-0.6,3.9
	c0,1.3,0.2,2.6,0.6,3.8c0.4,1.2,0.9,2.3,1.7,3.2c0.8,0.9,1.7,1.7,2.9,2.2c1.1,0.5,2.5,0.8,4,0.8c1.5,0,2.9-0.3,4-0.8
	c1.1-0.5,2.1-1.3,2.9-2.2c0.8-0.9,1.3-2,1.7-3.2c0.4-1.2,0.6-2.5,0.6-3.8C239.5,24.7,239.3,23.5,239,22.2z M236.4,28.8
	c-0.3,0.9-0.7,1.7-1.2,2.4c-0.5,0.7-1.2,1.2-2,1.7c-0.8,0.4-1.7,0.6-2.8,0.6c-1.1,0-2-0.2-2.8-0.6c-0.8-0.4-1.5-1-2-1.7
	c-0.5-0.7-0.9-1.5-1.2-2.4c-0.3-0.9-0.4-1.9-0.4-2.9c0-0.7,0.1-1.5,0.2-2.2c0.1-0.7,0.3-1.4,0.6-2.1c0.3-0.6,0.6-1.2,1.1-1.8
	c0.4-0.5,0.9-1,1.5-1.3c0.5-0.3,1.1-0.5,2-0.8c0.3-0.1,0.7-0.1,1.1-0.1c0.9,0,1.7,0.2,2.5,0.5c0.4,0.2,1.7,1.1,2.2,1.8
	c0.6,0.8,1.1,1.7,1.4,2.7c0.3,1,0.5,2.1,0.5,3.2C236.8,26.9,236.7,27.9,236.4,28.8z"/>
</svg>
